HIERARCHY
ROOT Hips
{
	OFFSET 0.000000 8.830580 0.000000
	CHANNELS 6 Xposition Yposition Zposition Zrotation Yrotation Xrotation 
	JOINT Spine
	{
		OFFSET 0.000000 0.010000 0.000000
		CHANNELS 3 Zrotation Yrotation Xrotation
		JOINT Spine1
		{
			OFFSET 0.000000 2.459130 0.000000
			CHANNELS 3 Zrotation Yrotation Xrotation
			JOINT Neck
			{
				OFFSET 0.000000 2.484630 0.000000
				CHANNELS 3 Zrotation Yrotation Xrotation
				JOINT Head_virtual
				{
					OFFSET 0.000000 0.000000 0.000000
					CHANNELS 3 Zrotation Yrotation Xrotation
					JOINT Head
					{
						OFFSET 0.000000 0.927525 0.000000
						CHANNELS 3 Zrotation Yrotation Xrotation
						End Site
						{
							OFFSET 0.000000 0.000000 0.000000
						}
					}
				}
				JOINT LeftUpArm_virtual
				{
					OFFSET 0.000000 0.000000 0.000000
					CHANNELS 3 Zrotation Yrotation Xrotation
					JOINT LeftUpArm
					{
						OFFSET 1.248820 0.000000 0.000000
						CHANNELS 3 Zrotation Yrotation Xrotation
						JOINT LeftForeArm
						{
							OFFSET 2.597580 0.000000 0.000000
							CHANNELS 3 Zrotation Yrotation Xrotation
							JOINT LeftHand
							{
								OFFSET 2.455420 0.000000 0.000000
								CHANNELS 3 Zrotation Yrotation Xrotation
								End Site
								{
									OFFSET 0.000000 0.000000 0.000000
								}
							}
						}
					}
				}
				JOINT RightUpArm_virtual
				{
					OFFSET -0.000000 -0.000000 -0.000000
					CHANNELS 3 Zrotation Yrotation Xrotation
					JOINT RightUpArm
					{
						OFFSET -1.248820 -0.000000 -0.000000
						CHANNELS 3 Zrotation Yrotation Xrotation
						JOINT RightForeArm
						{
							OFFSET -2.597580 -0.000000 -0.000000
							CHANNELS 3 Zrotation Yrotation Xrotation
							JOINT RightHand
							{
								OFFSET -2.455420 -0.000000 -0.000000
								CHANNELS 3 Zrotation Yrotation Xrotation
								End Site
								{
									OFFSET 0.000000 0.000000 0.000000
								}
							}
						}
					}
				}
			}
		}
	}
	JOINT LeftUpLeg
	{
		OFFSET 1.271939 0.000000 0.000000
		CHANNELS 3 Zrotation Yrotation Xrotation
		JOINT LeftLowLeg
		{
			OFFSET 0.000000 -4.342910 0.000000
			CHANNELS 3 Zrotation Yrotation Xrotation
			JOINT LeftFoot
			{
				OFFSET 0.000000 -4.487670 0.000000
				CHANNELS 3 Zrotation Yrotation Xrotation
				JOINT LeftToeBase
				{
					OFFSET 0.000000 0.000000 1.515070
					CHANNELS 3 Zrotation Yrotation Xrotation
					End Site
					{
						OFFSET 0.000000 0.000000 0.000000
					}
				}
			}
		}
	}
	JOINT RightUpLeg
	{
		OFFSET -1.271939 0.000000 0.000000
		CHANNELS 3 Zrotation Yrotation Xrotation
		JOINT RightLowLeg
		{
			OFFSET 0.000000 -4.342910 0.000000
			CHANNELS 3 Zrotation Yrotation Xrotation
			JOINT RightFoot
			{
				OFFSET 0.000000 -4.487670 0.000000
				CHANNELS 3 Zrotation Yrotation Xrotation
				JOINT RightToeBase
				{
					OFFSET 0.000000 0.000000 1.515070
					CHANNELS 3 Zrotation Yrotation Xrotation
					End Site
					{
						OFFSET 0.000000 0.000000 0.000000
					}
				}
			}
		}
	}
}
MOTION
Frames: 8
Frame Time: 0.041667
-15.853772 8.962932 36.250529 -177.070294 -2.076631 -162.973345 5.284623 -0.307834 -27.111423 -2.500066 -0.060004 7.928334 0.000000 0.000000 0.000000 12.770914 8.680353 -3.236436 -13.672143 -6.184955 -76.003657 -30.106300 -0.522253 9.711690 -42.606499 -4.593270 27.796700 0.000000 -18.027500 0.000000 1.696840 12.155900 17.180599 28.376200 -4.553550 1.072290 49.634102 -1.733460 22.687988 0.000000 16.802700 0.000000 7.228990 -9.475680 1.807760 6.207643 -24.099625 -14.556977 0.000000 0.000000 5.505070 -0.446356 21.194880 -4.086875 0.000000 0.000000 -11.256800 2.642828 30.432112 -13.079232 0.000000 0.000000 3.902900 1.675536 -30.610337 2.178838 0.000000 0.000000 -18.424880 
-15.850681 8.962756 36.251129 -177.078391 -2.055317 -162.979682 5.338314 -0.305401 -27.159918 -2.516491 -0.124719 7.938019 0.000000 0.000000 0.000000 12.635771 8.661252 -3.026122 -13.964219 -6.249906 -75.780323 -30.132799 -0.532098 9.729210 -42.595699 -4.647450 27.760700 0.000000 -17.974899 0.000000 2.006460 12.164000 17.583000 28.434299 -4.580640 1.174430 49.551498 -1.732630 22.243011 0.000000 16.643700 0.000000 7.276110 -9.406330 1.471400 6.207500 -24.072148 -14.549603 0.000000 0.000000 5.503760 -0.843196 21.051761 -4.285728 0.000000 0.000000 -10.891540 2.658573 30.408198 -13.081458 0.000000 0.000000 3.915870 1.652210 -30.572662 2.190072 0.000000 0.000000 -18.433680 
-15.847162 8.962578 36.251456 -177.084299 -1.999844 -162.999640 5.409257 -0.300579 -27.225807 -2.529792 -0.204943 7.980482 0.000000 0.000000 0.000000 12.328978 8.736478 -2.762748 -14.152271 -6.384370 -75.560891 -30.173901 -0.548102 9.754580 -42.560501 -4.692190 27.719900 0.000000 -17.947201 0.000000 2.215460 12.093900 18.116400 28.450899 -4.627700 1.202220 49.517200 -1.783960 21.885010 0.000000 16.562500 0.000000 7.014730 -9.476630 1.363870 6.195329 -24.024406 -14.511817 0.000000 0.000000 5.500110 -0.442258 21.196830 -4.088754 0.000000 0.000000 -11.279490 2.669148 30.445639 -13.082247 0.000000 0.000000 3.948030 1.656232 -30.551966 2.178339 0.000000 0.000000 -18.416730 
-15.843093 8.962377 36.251575 -177.085417 -1.946664 -163.035473 5.470394 -0.321903 -27.318067 -2.512920 -0.277049 8.110235 0.000000 0.000000 0.000000 12.046028 8.775824 -2.580892 -14.502374 -6.448242 -75.258966 -30.206100 -0.565036 9.748700 -42.514000 -4.769960 27.955099 0.000000 -17.941799 0.000000 2.635600 12.167200 18.576799 28.480900 -4.721130 1.150470 49.466702 -1.842110 21.373993 0.000000 16.468100 0.000000 6.964870 -9.492230 0.980599 6.189157 -23.998510 -14.461394 0.000000 0.000000 5.499750 -0.514812 21.193478 -4.132327 0.000000 0.000000 -11.254640 2.703917 30.465632 -13.060447 0.000000 0.000000 3.979420 1.625999 -30.530866 2.190754 0.000000 0.000000 -18.422460 
-15.838703 8.962383 36.251447 -177.095886 -1.862741 -163.083687 5.527645 -0.368901 -27.426516 -2.466841 -0.352740 8.295598 0.000000 0.000000 0.000000 11.635563 8.896957 -2.375808 -14.763979 -6.562103 -74.995993 -30.230900 -0.576528 9.799050 -42.509602 -4.914460 27.916000 0.000000 -17.964701 0.000000 2.844230 12.465300 18.865101 28.439899 -4.750330 1.049100 49.482101 -1.940410 20.984009 0.000000 16.300400 0.000000 6.780260 -9.388830 0.788425 6.165958 -23.985484 -14.388698 0.000000 0.000000 5.494390 -0.514427 21.259108 -4.126013 0.000000 0.000000 -11.271530 2.720070 30.550680 -13.030220 0.000000 0.000000 4.010720 1.577640 -30.549648 2.215104 0.000000 0.000000 -18.436960 
-15.834492 8.962321 36.251731 -177.108470 -1.777611 -163.128440 5.606824 -0.368836 -27.481918 -2.490343 -0.449636 8.364690 0.000000 0.000000 0.000000 11.259920 9.018918 -2.092366 -15.180816 -6.620549 -74.657654 -30.240900 -0.575282 9.798070 -42.489399 -4.994430 27.923901 0.000000 -17.961399 0.000000 2.941250 12.638400 19.091000 28.439400 -4.791620 1.091080 49.489601 -2.032700 20.394012 0.000000 16.175501 0.000000 6.759620 -9.463700 0.485648 6.130832 -23.924341 -14.333447 0.000000 0.000000 5.522110 -0.530021 21.268228 -4.148918 0.000000 0.000000 -11.267850 2.733602 30.614094 -13.008593 0.000000 0.000000 4.050070 1.560247 -30.537623 2.216919 0.000000 0.000000 -18.444740 
-15.830482 8.962319 36.252007 -177.116312 -1.698475 -163.197432 5.711146 -0.335428 -27.515412 -2.558969 -0.564930 8.436613 0.000000 0.000000 0.000000 10.893948 9.117442 -1.787192 -15.582414 -6.715297 -74.344817 -30.241301 -0.587506 9.813710 -42.465000 -5.089550 27.881399 0.000000 -17.934799 0.000000 3.099180 12.773000 19.551001 28.435699 -4.821560 1.066980 49.517300 -2.195000 19.941010 0.000000 16.023500 0.000000 6.597490 -9.489910 -0.057591 6.104518 -23.923580 -14.254394 0.000000 0.000000 5.541650 -0.591273 21.313686 -4.183491 0.000000 0.000000 -11.278190 2.762541 30.683913 -12.953174 0.000000 0.000000 4.076050 1.566241 -30.524247 2.215685 0.000000 0.000000 -18.436970 
-15.825961 8.962344 36.252279 -177.132198 -1.607221 -163.265749 5.808259 -0.308419 -27.590234 -2.618671 -0.662677 8.570637 0.000000 0.000000 0.000000 10.472604 9.247201 -1.513524 -16.060975 -6.765069 -73.954861 -30.257200 -0.659906 9.895690 -42.392399 -5.189130 27.794800 0.000000 -17.916800 0.000000 3.091050 12.688000 19.658899 28.453400 -4.886980 1.063480 49.528999 -2.252300 19.446991 0.000000 15.763800 0.000000 6.520970 -9.476480 -0.223349 6.073429 -23.922243 -14.174732 0.000000 0.000000 5.562090 -0.643941 21.360403 -4.211249 0.000000 0.000000 -11.263670 2.775352 30.783884 -12.902509 0.000000 0.000000 4.103610 1.573127 -30.519798 2.212797 0.000000 0.000000 -18.442790 
